<svg width="1080" height="972" viewBox="0 0 1080 972" fill="none" xmlns="http://www.w3.org/2000/svg">
<g clip-path="url(#clip0_7_38)">
<path d="M250.915 938.659L250.537 939.713C250.332 940.297 249.808 940.502 249.397 940.502C248.987 940.502 248.496 940.297 248.29 939.713L195.927 793.395H172.253L232.517 957.466C235.114 964.542 241.908 969.283 249.43 969.283C256.952 969.283 263.772 964.515 266.337 957.406L326.25 793.363H303.57L250.947 938.627L250.92 938.659H250.915Z" fill="black"/>
<path d="M123.59 801.292L123.503 801.232C112.045 794.243 98.604 790.702 83.5596 790.702C67.1706 790.702 52.4826 794.708 39.9168 802.578C27.324 810.238 17.4366 821.093 10.4706 834.807C3.5262 848.289 0 863.907 0 881.189C0 898.471 3.5262 914.18 10.4652 927.895C17.4312 941.609 27.3186 952.577 39.9114 960.443C52.4772 968.076 67.1436 971.968 83.5542 971.968C96.12 971.968 107.725 969.8 118.044 965.535C128.628 961.032 137.522 954.394 144.488 945.853C151.659 937.312 156.47 926.668 158.717 914.267L158.863 913.418H137.257L137.144 914.029C135.162 925.435 129.184 934.533 119.356 941.085C109.474 947.696 97.4322 951.058 83.5542 951.058C65.5344 951.058 50.814 944.799 39.852 932.49C29.4138 920.321 23.9652 903.682 23.6412 882.946H159.327L159.413 882.33C159.878 879.14 160.115 875.605 160.115 871.832C160.348 856.333 157.172 842.294 150.638 830.153C144.342 817.779 135.243 808.071 123.611 801.346L123.584 801.286L123.59 801.292ZM51.4296 820.298C60.4692 814.568 71.253 811.671 83.5596 811.671C93.879 811.671 103.005 813.893 110.673 818.309C118.341 822.699 124.319 828.926 128.515 836.851C132.802 844.338 135.335 853.025 136.096 862.647H25.191C26.4168 856.036 28.3392 849.954 30.8772 844.516C35.7156 834.132 42.6276 826.001 51.4026 820.298H51.435H51.4296Z" fill="black"/>
<path d="M458.35 801.233C446.892 794.271 433.483 790.735 418.439 790.735C402.055 790.735 387.362 794.741 374.796 802.612C362.203 810.277 352.321 821.126 345.35 834.841C338.411 848.323 334.885 863.913 334.885 881.228C334.885 898.542 338.411 914.219 345.35 927.934C352.289 941.648 362.203 952.616 374.796 960.482C387.362 968.115 402.028 972.007 418.439 972.007C430.978 972.007 442.582 969.844 452.929 965.574C463.513 961.071 472.401 954.433 479.373 945.892C486.544 937.35 491.355 926.706 493.602 914.306L493.747 913.457H472.142L472.023 914.073C470.074 925.479 464.064 934.577 454.241 941.129C444.359 947.74 432.317 951.103 418.439 951.103C400.419 951.103 385.699 944.843 374.737 932.534C364.299 920.365 358.85 903.727 358.526 882.99H494.244L494.331 882.374C494.795 879.157 495.033 875.617 495.033 871.876C495.265 856.377 492.09 842.339 485.556 830.197C479.259 817.796 470.133 808.088 458.41 801.304L458.35 801.244V801.233ZM360.07 862.648C361.296 856.037 363.219 849.928 365.757 844.517C370.595 834.133 377.507 826.002 386.282 820.299C395.322 814.569 406.138 811.672 418.439 811.672C428.758 811.672 437.884 813.894 445.585 818.31C453.226 822.7 459.231 828.927 463.426 836.852C467.714 844.339 470.247 853.026 471.008 862.648H360.103H360.07Z" fill="black"/>
<path d="M855.181 819.893C849.554 811.763 841.476 804.919 831.13 799.535C819.876 793.686 808.239 790.702 796.58 790.702C779.09 790.702 763.813 794.826 751.247 802.924C738.887 810.79 729.323 821.731 722.822 835.478C716.32 848.96 713.026 864.345 713.026 881.162C713.026 897.979 716.207 913.478 722.471 927.165C728.972 940.912 738.654 951.967 751.247 960.064C763.813 967.962 779.063 971.941 796.58 971.941C810.048 971.941 822.587 968.87 833.813 962.789C843.841 957.351 851.045 950.826 855.181 943.371V969.254H877.775V793.394H855.181V819.893ZM857.568 881.162C857.568 895.082 855.003 907.542 849.927 918.159L849.867 918.337C845.029 928.603 837.944 936.701 828.759 942.409C819.752 948.139 809.168 951.037 797.272 951.037C785.375 951.037 774.678 948.145 765.466 942.409C756.426 936.679 749.314 928.397 744.271 917.84C739.2 907.223 736.63 894.909 736.63 881.194C736.63 867.48 739.195 855.284 744.271 844.9C749.314 834.343 756.458 826.066 765.466 820.331C774.705 814.601 785.408 811.703 797.272 811.703C809.135 811.703 819.746 814.601 828.759 820.331C837.971 826.034 845.115 834.31 849.954 844.9C855.024 855.284 857.595 867.48 857.595 881.194L857.562 881.167L857.568 881.162Z" fill="black"/>
<path d="M607.505 790.702C595.55 790.702 584.123 794.595 573.539 802.254L572.897 802.725C563.744 809.336 556.923 817.612 552.576 827.381V793.394H529.983V969.282H552.576V901.018C552.576 881.919 554.936 865.486 559.575 852.177C564.208 838.695 570.564 828.397 578.47 821.586C586.548 814.801 595.523 811.347 605.172 811.347C612.257 811.347 618.381 812.136 623.397 813.655L624.332 813.947V792.567L623.808 792.421C619.963 791.281 614.477 790.697 607.511 790.697L607.505 790.702Z" fill="black"/>
<path d="M1070.21 835.478C1063.68 821.731 1054 810.795 1041.46 802.924C1029.1 794.821 1013.94 790.702 996.447 790.702C984.756 790.702 973.125 793.686 961.898 799.535C951.519 804.946 943.414 811.79 937.814 819.92V722.822H915.22V969.281H937.814V943.398C941.983 950.858 949.154 957.378 959.214 962.816C970.441 968.897 982.974 971.968 996.447 971.968C1013.97 971.968 1029.21 967.962 1041.78 960.091C1054.37 951.961 1063.97 940.906 1070.21 927.192C1076.71 913.472 1080 898.006 1080 881.189C1080 864.371 1076.71 848.987 1070.21 835.505V835.478ZM1056.41 881.194C1056.41 894.503 1054 906.52 1049.21 916.905L1048.77 917.813C1043.73 928.397 1036.47 936.647 1027.23 942.382C1018.22 948.112 1007.64 951.01 995.767 951.01C983.903 951.01 973.173 948.112 963.961 942.382C954.921 936.652 947.809 928.489 942.793 918.164C937.954 907.547 935.476 895.12 935.476 881.167C935.476 867.215 937.868 855.371 942.766 844.873C947.809 834.315 954.954 826.039 963.934 820.304C973.179 814.574 983.876 811.676 995.74 811.676C1007.61 811.676 1018.22 814.574 1027.23 820.304C1036.47 826.034 1043.7 834.283 1048.77 844.873C1053.84 855.257 1056.41 867.453 1056.41 881.167V881.194Z" fill="black"/>
<path d="M692.352 950.712H687.978C683.426 950.712 679.986 949.452 677.454 946.912C675.121 944.133 673.928 940.565 673.928 936.295V722.826H651.334V938.987C651.334 948.344 654.336 956.096 660.287 962.031C666.438 967.967 674.716 970.983 684.949 970.983C687.168 970.983 689.237 970.87 691.073 970.664C692.941 970.432 694.545 970.081 695.911 969.61L696.408 969.432V949.809L695.506 950.041C694.545 950.306 693.319 950.506 692.358 950.685V950.717L692.352 950.712Z" fill="black"/>
<path d="M326.836 234.956C341.276 234.956 354.927 228.631 364.296 217.593C375.436 204.457 390.815 196.927 406.492 196.927H695.089C709.28 196.927 723.277 202.7 734.498 213.176C742.22 220.377 752.205 223.928 762.773 223.134C782.013 221.744 797.284 205.543 797.538 186.261C797.689 176.12 793.861 166.562 786.765 159.346C779.653 152.118 770.155 148.139 760.019 148.139C749.883 148.139 741.189 151.788 734.25 158.405C723.31 168.762 709.982 174.466 696.72 174.466H405.79C390.394 174.466 375.339 167.022 364.48 154.043C354.209 141.809 339.213 135.463 323.272 136.555C298.357 138.285 278.306 159.248 277.626 184.277C277.243 197.7 282.167 210.392 291.509 220.009C300.862 229.648 313.406 234.956 326.836 234.956Z" fill="black"/>
<path d="M751.907 397.735C735.999 396.583 720.971 402.984 710.7 415.222C699.835 428.196 684.78 435.64 669.39 435.64H380.09C365.877 435.64 351.897 429.872 340.735 419.39C333.013 412.19 323.018 408.654 312.466 409.433C293.22 410.822 277.949 427.045 277.695 446.365C277.544 456.495 281.378 466.053 288.49 473.28C295.607 480.513 305.1 484.492 315.215 484.492C325.329 484.492 334.044 480.843 340.983 474.221C351.924 463.863 365.251 458.16 378.508 458.16H668.682C684.315 458.16 699.695 465.696 710.883 478.832C720.301 489.865 733.958 496.19 748.343 496.19H750.795V496.071C763.242 495.466 774.809 490.249 783.584 481.227C792.947 471.604 797.904 458.901 797.553 445.462C796.868 420.433 776.812 399.47 751.907 397.735Z" fill="black"/>
<path d="M655.533 522.392C638.55 522.392 622.787 530.117 612.279 543.577C601.096 557.886 584.761 566.092 567.454 566.092H452.201C438.734 566.092 426.168 561.589 416.815 553.416C409.547 547.069 399.816 544.491 390.08 546.366C377.811 548.729 367.875 558.481 365.348 570.622C363.334 580.228 365.656 590.023 371.709 597.489C377.752 604.938 386.705 609.214 396.268 609.214C403.715 609.214 410.924 606.576 416.551 601.786C426.6 593.294 439.382 588.618 452.547 588.618H566.687C584.707 588.618 601.387 596.667 611.296 610.144C621.81 624.464 637.978 632.675 655.641 632.675H661.397L661.084 632.345C673.996 631.075 685.908 625.345 695.083 615.885C705.553 605.095 711.078 590.856 710.635 575.785C709.711 546.345 684.99 522.386 655.522 522.386L655.533 522.392Z" fill="black"/>
<path d="M419.609 110.224C436.986 110.224 453.542 101.845 463.894 87.8113C473.782 74.3725 490.43 66.345 508.439 66.345H622.876C636.311 66.345 648.941 70.8912 658.435 79.1404C665.735 85.5192 675.482 88.1194 685.165 86.2544C697.401 83.9083 707.364 74.1617 709.956 61.9933C711.976 52.3873 709.654 42.5974 703.595 35.1321C697.552 27.6775 688.599 23.407 679.03 23.407C671.621 23.407 664.44 26.045 658.807 30.8291C648.839 39.2459 636.1 43.884 622.924 43.884H507.964C490.662 43.884 474.278 35.6348 463.019 21.2501C452.495 7.74106 436.711 0 419.733 0H419.62C390.168 0 365.479 23.9313 364.561 53.3982C364.091 68.4424 369.583 82.6704 380.027 93.4549C390.497 104.272 404.559 110.224 419.62 110.224H419.609Z" fill="black"/>
<path d="M852.974 307.559C849.61 290.185 835.586 276.493 818.069 273.487C803.014 270.903 788.002 276.179 777.941 287.569C768.221 298.64 753.431 304.986 737.355 304.986H337.831C321.755 304.986 306.959 298.64 297.25 287.569C287.233 276.174 272.264 270.908 257.117 273.487C239.605 276.493 225.581 290.185 222.217 307.559C219.689 320.577 223 333.81 231.283 343.875C239.561 353.925 251.749 359.687 264.72 359.687C277.691 359.687 289.036 354.309 297.25 344.93C306.975 333.859 321.852 327.507 338.068 327.507H737.123C753.344 327.507 768.221 333.853 777.941 344.924C786.155 354.303 798.013 359.687 810.471 359.687C822.929 359.687 835.711 353.914 843.983 343.854C852.245 333.804 855.523 320.571 852.98 307.559H852.974Z" fill="black"/>
</g>
<defs>
<clipPath id="clip0_7_38">
<rect width="1080" height="972" fill="white"/>
</clipPath>
</defs>
</svg>
