<svg width="485" height="474" viewBox="0 0 485 474" fill="none" xmlns="http://www.w3.org/2000/svg">
<path d="M14 259C59.5 175.833 210.5 9.5 450.5 9.5" stroke="black" stroke-opacity="0.5"/>
<path d="M14.0002 258.991C84.8014 195.951 235.5 87.5 465 155" stroke="black" stroke-opacity="0.5"/>
<path d="M13.9999 258.802C100.761 220.598 252.5 148.5 459 258.802" stroke="black" stroke-opacity="0.5"/>
<rect width="27.6513" height="27.6513" transform="translate(0 259)" fill="white"/>
<g clip-path="url(#clip0_17_156)">
<path fill-rule="evenodd" clip-rule="evenodd" d="M0 259V286.651H27.6513V259H0ZM13.8257 277.434C11.2817 277.434 9.2171 275.37 9.2171 272.826C9.2171 270.282 11.2817 268.217 13.8257 268.217C16.3696 268.217 18.4342 270.282 18.4342 272.826C18.4342 275.37 16.3696 277.434 13.8257 277.434Z" fill="black"/>
</g>
<g clip-path="url(#clip1_17_156)">
<path d="M469.996 0.655044V18.9963H451.655V0.655044H469.996ZM470.651 0H451V19.6513H470.651V0ZM460.826 6.55044C459.018 6.55044 457.55 8.01774 457.55 9.82566C457.55 11.6336 459.018 13.1009 460.826 13.1009C462.634 13.1009 464.101 11.6336 464.101 9.82566C464.101 8.01774 462.634 6.55044 460.826 6.55044Z" fill="black"/>
</g>
<g clip-path="url(#clip2_17_156)">
<path d="M483.996 147.655V165.996H465.655V147.655H483.996ZM484.651 147H465V166.651H484.651V147ZM474.826 153.55C473.018 153.55 471.55 155.018 471.55 156.826C471.55 158.634 473.018 160.101 474.826 160.101C476.634 160.101 478.101 158.634 478.101 156.826C478.101 155.018 476.634 153.55 474.826 153.55Z" fill="black"/>
</g>
<g clip-path="url(#clip3_17_156)">
<path d="M477.996 249.655V267.996H459.655V249.655H477.996ZM478.651 249H459V268.651H478.651V249ZM468.826 255.55C467.018 255.55 465.55 257.018 465.55 258.826C465.55 260.634 467.018 262.101 468.826 262.101C470.634 262.101 472.101 260.634 472.101 258.826C472.101 257.018 470.634 255.55 468.826 255.55Z" fill="black"/>
</g>
<defs>
<clipPath id="clip0_17_156">
<rect width="27.6513" height="27.6513" fill="white" transform="translate(0 259)"/>
</clipPath>
<clipPath id="clip1_17_156">
<rect width="19.6513" height="19.6513" fill="white" transform="translate(451)"/>
</clipPath>
<clipPath id="clip2_17_156">
<rect width="19.6513" height="19.6513" fill="white" transform="translate(465 147)"/>
</clipPath>
<clipPath id="clip3_17_156">
<rect width="19.6513" height="19.6513" fill="white" transform="translate(459 249)"/>
</clipPath>
</defs>
</svg>
