<svg width="1080" height="1081" viewBox="0 0 1080 1081" fill="none" xmlns="http://www.w3.org/2000/svg">
<path d="M180.074 401.231C204.732 401.231 228.044 390.43 244.044 371.58C263.068 349.148 289.33 336.289 316.1 336.289H808.934C833.168 336.289 857.07 346.148 876.233 364.038C889.419 376.334 906.47 382.399 924.516 381.042C957.373 378.67 983.451 351.003 983.885 318.075C984.143 300.757 977.605 284.436 965.488 272.112C953.343 259.77 937.122 252.976 919.813 252.976C902.505 252.976 887.658 259.207 875.808 270.506C857.126 288.193 834.367 297.932 811.719 297.932H314.902C288.611 297.932 262.901 285.221 244.357 263.056C226.818 242.166 201.21 231.328 173.988 233.193C131.44 236.147 97.2004 271.946 96.0385 314.687C95.3837 337.609 103.794 359.284 119.747 375.706C135.719 392.166 157.14 401.231 180.074 401.231Z" fill="white"/>
<path d="M905.962 679.206C878.795 677.239 853.132 688.169 835.592 709.069C817.039 731.224 791.329 743.936 765.048 743.936H271.015C246.744 743.936 222.87 734.086 203.809 716.186C190.622 703.89 173.553 697.853 155.534 699.182C122.669 701.555 96.5907 729.258 96.1573 762.251C95.8991 779.55 102.446 795.871 114.591 808.214C126.745 820.565 142.956 827.359 160.228 827.359C177.5 827.359 192.384 821.128 204.233 809.82C222.916 792.133 245.675 782.393 268.313 782.393H763.84C790.536 782.393 816.799 795.262 835.906 817.694C851.988 836.535 875.309 847.336 899.875 847.336H904.062V847.133C925.318 846.099 945.07 837.191 960.055 821.784C976.045 805.352 984.51 783.658 983.911 760.709C982.74 717.968 948.491 682.169 905.962 679.206Z" fill="white"/>
<path d="M741.385 892.081C712.383 892.081 685.466 905.272 667.521 928.258C648.423 952.694 620.528 966.707 590.973 966.707H394.159C371.16 966.707 349.702 959.017 333.73 945.06C321.318 934.222 304.701 929.819 288.074 933.022C267.123 937.056 250.156 953.709 245.84 974.443C242.4 990.847 246.366 1007.57 256.703 1020.32C267.022 1033.04 282.311 1040.35 298.642 1040.35C311.359 1040.35 323.669 1035.84 333.278 1027.66C350.439 1013.16 372.267 1005.17 394.749 1005.17H589.664C620.436 1005.17 648.921 1018.92 665.842 1041.93C683.797 1066.39 711.406 1080.41 741.569 1080.41H751.399L750.865 1079.85C772.913 1077.68 793.256 1067.89 808.923 1051.74C826.804 1033.31 836.237 1009 835.481 983.259C833.904 932.985 791.688 892.072 741.366 892.072L741.385 892.081Z" fill="white"/>
<path d="M338.501 188.227C368.176 188.227 396.449 173.919 414.126 149.954C431.011 127.005 459.441 113.296 490.194 113.296H685.616C708.56 113.296 730.129 121.06 746.34 135.147C758.807 146.04 775.452 150.48 791.986 147.295C812.882 143.289 829.896 126.645 834.322 105.865C837.771 89.461 833.806 72.743 823.459 59.9945C813.141 47.2645 797.851 39.9717 781.511 39.9717C768.859 39.9717 756.594 44.4766 746.976 52.6464C729.953 67.0196 708.2 74.9401 685.699 74.9401H489.383C459.837 74.9401 431.859 60.853 412.632 36.2884C394.66 13.2193 367.705 0 338.713 0H338.519C288.225 0 246.064 40.8672 244.497 91.1872C243.694 116.878 253.073 141.175 270.907 159.592C288.788 178.063 312.8 188.227 338.519 188.227H338.501Z" fill="white"/>
<path d="M1078.55 525.215C1072.81 495.545 1048.86 472.162 1018.94 467.03C993.235 462.617 967.599 471.627 950.42 491.077C933.821 509.983 908.563 520.821 881.111 520.821H198.849C171.397 520.821 146.13 509.983 129.549 491.077C112.443 471.618 86.8815 462.626 61.0152 467.03C31.1099 472.162 7.16162 495.545 1.41663 525.215C-2.89903 547.444 2.75375 570.042 16.8995 587.231C31.0361 604.392 51.849 614.233 73.9991 614.233C96.1491 614.233 115.523 605.047 129.549 589.031C146.157 570.125 171.563 559.278 199.255 559.278H880.714C908.416 559.278 933.821 570.116 950.42 589.022C964.445 605.038 984.696 614.233 1005.97 614.233C1027.24 614.233 1049.07 604.374 1063.2 587.194C1077.31 570.033 1082.9 547.435 1078.56 525.215H1078.55Z" fill="white"/>
</svg>
