<svg width="1979" height="386" viewBox="0 0 1979 386" fill="none" xmlns="http://www.w3.org/2000/svg">
<g clip-path="url(#clip0_7_2)">
<path d="M794.632 307.957L794.088 309.461C793.791 310.292 793.049 310.589 792.465 310.589C791.882 310.589 791.179 310.302 790.882 309.461L716.092 100.694H682.284L768.353 334.79C772.063 344.892 781.76 351.65 792.505 351.65C803.25 351.65 812.996 344.843 816.657 334.711L902.231 100.654H869.838L794.672 307.918L794.632 307.957Z" fill="black"/>
<path d="M612.767 111.952L612.639 111.873C596.274 101.9 577.079 96.8539 555.589 96.8539C532.179 96.8539 511.194 102.573 493.246 113.793C475.258 124.726 461.139 140.21 451.185 159.781C441.271 179.015 436.235 201.297 436.235 225.963C436.235 250.629 441.271 273.03 451.185 292.601C461.139 312.171 475.258 327.824 493.246 339.044C511.194 349.937 532.14 355.488 555.589 355.488C573.537 355.488 590.11 352.401 604.852 346.306C619.97 339.885 632.674 330.406 642.618 318.226C652.868 306.037 659.735 290.849 662.941 273.158L663.149 271.951H632.289L632.12 272.822C629.291 289.098 620.752 302.079 606.712 311.419C592.593 320.848 575.397 325.647 555.579 325.647C529.844 325.647 508.809 316.723 493.156 299.15C478.246 281.796 470.459 258.05 470.004 228.466H663.811L663.94 227.586C664.603 223.034 664.939 217.988 664.939 212.606C665.276 190.492 660.734 170.457 651.404 153.142C642.41 135.491 629.419 121.639 612.797 112.041L612.757 111.962L612.767 111.952ZM509.7 139.082C522.612 130.9 538.017 126.774 555.589 126.774C570.331 126.774 583.362 129.95 594.315 136.243C605.268 142.506 613.806 151.391 619.802 162.7C625.927 173.385 629.548 185.773 630.626 199.506H472.22C473.972 190.077 476.722 181.4 480.344 173.633C487.26 158.821 497.124 147.215 509.66 139.082H509.7Z" fill="black"/>
<path d="M1090.92 111.873C1074.56 101.939 1055.4 96.8934 1033.91 96.8934C1010.51 96.8934 989.528 102.612 971.57 113.832C953.582 124.765 939.463 140.25 929.509 159.82C919.596 179.055 914.559 201.297 914.559 226.003C914.559 250.708 919.596 273.069 929.509 292.64C939.423 312.211 953.582 327.853 971.57 339.083C989.518 349.977 1010.46 355.528 1033.91 355.528C1051.82 355.528 1068.39 352.441 1083.18 346.346C1098.29 339.915 1110.99 330.446 1120.94 318.266C1131.18 306.086 1138.06 290.889 1141.26 273.198L1141.47 271.991H1110.61L1110.44 272.872C1107.65 289.147 1099.08 302.129 1085.05 311.469C1070.93 320.898 1053.73 325.697 1033.91 325.697C1008.18 325.697 987.153 316.762 971.491 299.2C956.58 281.836 948.793 258.099 948.338 228.506H1142.19L1142.3 227.625C1142.97 223.034 1143.3 217.988 1143.3 212.646C1143.64 190.532 1139.1 170.496 1129.77 153.181C1120.77 135.491 1107.74 121.639 1090.99 111.952L1090.91 111.873H1090.92ZM950.545 199.506C952.296 190.077 955.046 181.35 958.668 173.633C965.584 158.821 975.448 147.215 987.984 139.082C1000.9 130.9 1016.34 126.774 1033.91 126.774C1048.66 126.774 1061.69 129.95 1072.69 136.243C1083.6 142.506 1092.18 151.391 1098.18 162.7C1104.3 173.385 1107.92 185.773 1109 199.506H950.594H950.554H950.545Z" fill="black"/>
<path d="M1657.72 138.499C1649.69 126.903 1638.15 117.137 1623.37 109.459C1607.29 101.108 1590.68 96.8539 1574.02 96.8539C1549.03 96.8539 1527.21 102.741 1509.26 114.297C1491.6 125.527 1477.94 141.13 1468.65 160.741C1459.36 179.975 1454.66 201.93 1454.66 225.924C1454.66 249.917 1459.2 272.031 1468.16 291.562C1477.45 311.172 1491.27 326.943 1509.26 338.51C1527.21 349.779 1548.98 355.448 1574.02 355.448C1593.25 355.448 1611.16 351.065 1627.2 342.388C1641.52 334.621 1651.81 325.321 1657.72 314.684V351.619H1690V100.693H1657.72V138.499ZM1661.14 225.924C1661.14 245.791 1657.47 263.561 1650.22 278.709L1650.14 278.956C1643.23 293.6 1633.11 305.156 1620 313.299C1607.12 321.482 1592.01 325.608 1575.03 325.608C1558.04 325.608 1542.75 321.482 1529.59 313.299C1516.68 305.117 1506.52 293.313 1499.32 278.244C1492.07 263.096 1488.4 245.524 1488.4 225.953C1488.4 206.383 1492.06 188.979 1499.32 174.167C1506.52 159.098 1516.72 147.294 1529.59 139.112C1542.79 130.929 1558.08 126.804 1575.03 126.804C1591.97 126.804 1607.13 130.939 1620 139.112C1633.15 147.245 1643.36 159.059 1650.27 174.167C1657.51 188.979 1661.18 206.383 1661.18 225.953L1661.15 225.914L1661.14 225.924Z" fill="black"/>
<path d="M1303.97 96.8544C1286.89 96.8544 1270.56 102.405 1255.45 113.338L1254.53 114.001C1241.46 123.43 1231.72 135.244 1225.51 149.175V100.683H1193.24V351.64H1225.51V254.241C1225.51 226.993 1228.89 203.543 1235.51 184.556C1242.13 165.322 1251.21 150.629 1262.49 140.903C1274.03 131.227 1286.85 126.299 1300.63 126.299C1310.75 126.299 1319.5 127.427 1326.66 129.594L1328 130.01V99.506L1327.25 99.2982C1321.75 97.6756 1313.92 96.8346 1303.97 96.8346V96.8544Z" fill="black"/>
<path d="M1964.85 160.741C1955.52 141.131 1941.7 125.518 1923.79 114.298C1906.13 102.741 1884.48 96.8542 1859.48 96.8542C1842.78 96.8542 1826.17 101.109 1810.14 109.459C1795.31 117.177 1783.74 126.942 1775.74 138.548V0H1743.47V351.649H1775.74V314.714C1781.7 325.351 1791.94 334.661 1806.3 342.418C1822.33 351.095 1840.24 355.478 1859.48 355.478C1884.52 355.478 1906.29 349.76 1924.24 338.54C1942.23 326.934 1955.93 311.162 1964.85 291.592C1974.14 272.021 1978.84 249.947 1978.84 225.954C1978.84 201.96 1974.13 180.005 1964.85 160.771V160.731V160.741ZM1945.15 225.964C1945.15 244.95 1941.7 262.097 1934.86 276.919L1934.24 278.215C1927.03 293.323 1916.66 305.087 1903.46 313.27C1890.59 321.442 1875.47 325.578 1858.53 325.578C1841.59 325.578 1826.26 321.442 1813.1 313.27C1800.19 305.087 1790.03 293.452 1782.86 278.719C1775.95 263.571 1772.41 245.841 1772.41 225.934C1772.41 206.027 1775.82 189.127 1782.81 174.148C1790.02 159.079 1800.22 147.275 1813.05 139.093C1826.25 130.91 1841.54 126.784 1858.49 126.784C1875.43 126.784 1890.59 130.92 1903.46 139.093C1916.66 147.275 1926.99 159.039 1934.24 174.148C1941.48 188.959 1945.15 206.363 1945.15 225.934V225.973V225.964Z" fill="black"/>
<path d="M1425.15 325.153H1418.91C1412.41 325.153 1407.5 323.362 1403.87 319.731C1400.53 315.763 1398.83 310.678 1398.83 304.583V0H1366.56V308.422C1366.56 321.779 1370.85 332.831 1379.34 341.3C1388.12 349.77 1399.95 354.073 1414.57 354.073C1417.74 354.073 1420.7 353.905 1423.32 353.618C1425.98 353.282 1428.28 352.787 1430.23 352.114L1430.94 351.867V323.867L1429.65 324.203C1428.28 324.579 1426.52 324.866 1425.15 325.123V325.163V325.153Z" fill="black"/>
<path d="M57.3277 169.882C65.1738 169.882 72.5945 166.449 77.69 160.453C83.7452 153.319 92.1058 149.233 100.635 149.233H257.527C265.244 149.233 272.853 152.37 278.948 158.059C283.143 161.967 288.575 163.896 294.313 163.461C304.772 162.709 313.073 153.913 313.211 143.435C313.29 137.934 311.213 132.739 307.354 128.821C303.485 124.893 298.321 122.736 292.819 122.736C287.318 122.736 282.579 124.715 278.809 128.307C272.863 133.927 265.62 137.034 258.407 137.034H100.249C91.8783 137.034 83.6958 132.987 77.7889 125.942C72.2086 119.303 64.0558 115.85 55.3885 116.444C41.8433 117.384 30.9399 128.772 30.5739 142.357C30.3661 149.649 33.0474 156.535 38.1231 161.759C43.2087 166.993 50.0258 169.872 57.3277 169.872V169.882Z" fill="black"/>
<path d="M288.418 258.277C279.77 257.653 271.598 261.126 266.017 267.775C260.111 274.82 251.928 278.866 243.558 278.866H86.2796C78.5522 278.866 70.9535 275.73 64.8883 270.041C60.6932 266.133 55.2613 264.213 49.5226 264.639C39.0645 265.391 30.7534 274.206 30.6247 284.694C30.5456 290.195 32.6234 295.39 36.492 299.308C40.3606 303.236 45.5254 305.393 51.0167 305.393C56.5079 305.393 61.2473 303.414 65.0268 299.812C70.9732 294.193 78.2158 291.086 85.4287 291.086H243.182C251.681 291.086 260.041 295.182 266.126 302.316C271.242 308.312 278.672 311.745 286.488 311.745H287.824V311.676C294.592 311.349 300.875 308.509 305.644 303.612C310.729 298.388 313.43 291.491 313.242 284.19C312.866 270.595 301.963 259.217 288.428 258.267L288.418 258.277Z" fill="black"/>
<path d="M236.017 325.973C226.785 325.973 218.217 330.168 212.508 337.479C206.423 345.246 197.548 349.709 188.139 349.709H125.489C118.167 349.709 111.34 347.265 106.254 342.822C102.306 339.379 97.0131 337.974 91.7197 338.993C85.051 340.28 79.6488 345.573 78.2735 352.162C77.1752 357.377 78.4417 362.7 81.7364 366.756C85.0213 370.803 89.8892 373.118 95.0837 373.118C99.1304 373.118 103.049 371.684 106.116 369.082C111.577 364.471 118.523 361.928 125.686 361.928H187.733C197.528 361.928 206.601 366.301 211.984 373.623C217.702 381.4 226.488 385.862 236.096 385.862H239.222L239.054 385.684C246.069 384.991 252.55 381.885 257.536 376.75C263.226 370.892 266.233 363.155 265.996 354.972C265.491 338.983 252.055 325.973 236.036 325.973H236.017Z" fill="black"/>
<path d="M107.76 102.146C117.209 102.146 126.203 97.5951 131.833 89.9766C137.205 82.6747 146.258 78.3213 156.053 78.3213H218.268C225.57 78.3213 232.437 80.7849 237.601 85.267C241.569 88.7299 246.872 90.1448 252.136 89.1257C258.785 87.8494 264.207 82.556 265.612 75.9565C266.71 70.7423 265.444 65.4291 262.159 61.3725C258.874 57.3258 254.006 55.0007 248.802 55.0007C244.775 55.0007 240.866 56.4353 237.809 59.0276C232.387 63.5987 225.461 66.1118 218.298 66.1118H155.806C146.397 66.1118 137.492 61.6298 131.377 53.8232C125.649 46.4917 117.06 42.2866 107.839 42.2866H107.78C91.7709 42.2866 78.3445 55.2777 77.8498 71.2865C77.5926 79.4591 80.5806 87.1865 86.2599 93.0438C91.949 98.921 99.5972 102.146 107.78 102.146H107.76Z" fill="black"/>
<path d="M343.359 209.311C341.529 199.872 333.91 192.441 324.382 190.809C316.2 189.404 308.037 192.273 302.566 198.457C297.282 204.473 289.238 207.916 280.502 207.916H63.3044C54.5678 207.916 46.5238 204.473 41.2403 198.457C35.7985 192.273 27.6556 189.404 19.4236 190.809C9.90543 192.441 2.27701 199.882 0.446585 209.311C-0.928707 216.375 0.872035 223.568 5.37389 229.03C9.87575 234.491 16.5049 237.618 23.5495 237.618C30.5942 237.618 36.7682 234.699 41.2304 229.604C46.5139 223.588 54.6074 220.145 63.4231 220.145H280.363C289.179 220.145 297.272 223.588 302.556 229.604C307.018 234.699 313.469 237.618 320.237 237.618C327.004 237.618 333.96 234.482 338.452 229.02C342.944 223.568 344.725 216.375 343.34 209.311H343.359Z" fill="black"/>
</g>
<defs>
<clipPath id="clip0_7_2">
<rect width="1978.84" height="385.863" fill="white"/>
</clipPath>
</defs>
</svg>
